<svg width="177" height="55" fill="none" xmlns="http://www.w3.org/2000/svg"><path fill-rule="evenodd" clip-rule="evenodd" d="M38.8 34.2h-4.6V17.4l4.6-1.4v7.5c1.7-.7 3-1 4.2-1 1.7 0 3 .4 3.7 1.2.5.6.8 1.6.8 3v7.6h-4.6v-6.7c0-1-.6-1.4-1.7-1.4-.7 0-1.5.2-2.4.6v7.4zm22.8-1.4c-1.2 1-3 1.6-5.5 1.6-2 0-3.8-.4-5-1.3-1.5-1-2.2-2.4-2.2-4.5 0-1.8.7-3.3 2-4.3 1-1 3-1.6 5.4-1.6 2 0 3.8.4 5 1.3 1.4 1 2 2.5 2 4.5s-.5 3.3-1.6 4.3h-.1zm-3-5.4c-.3-1-1-1.5-2.5-1.5-1.7 0-2.5.8-2.5 2.4 0 1.8.8 2.6 2.5 2.6s2.6-.8 2.6-2.6c0-.3 0-.6-.2-1l.1.1zm12.6-1.1v2c0 1 0 2 .4 2.3.3.3 1 .5 1.8.5.5 0 1 0 2-.3v3c-1.3.6-2.5.8-3.5.8-2 0-3.6-.5-4.4-1.5-.6-.8-1-2.2-1-4.2v-2.5H64v-3.6h2.7V20l4.7-1.3V23h4.2v3.3h-4.4zm14 7.7c-1.3.3-2.4.5-3.3.5-3 0-4.5-1.4-4.5-4v-7.7h4.4v6.5c0 1 .7 1.6 1.8 1.6.6 0 1.3-.3 2.2-.7v-7.4h4.6V30c0 1 .4 1.3 1 1.3.4 0 .7 0 1-.2v3c-1 .3-2 .5-3 .5-1.5 0-2.5-.3-3-1-.4 0-.8.2-1.2.4zm13.4.2H94V17.4l4.6-1.4v10.6c1 0 2 0 2.5-.3.8-.3 1.3-1 1.3-1.8 0-.5-.2-1-.4-1.7h4.8c.2.5.3 1 .3 1.6 0 .6 0 1.2-.2 1.7-.3 1.3-1.2 2.3-2.5 3l4 5.2h-5.3L99.8 30h-1.2v4.2zM118 17.4l4.6-1.3v14c0 1 .3 1.3 1 1.3.4 0 .7 0 1-.3v3c-1 .3-2.2.5-3.2.5-1.2 0-2-.3-2.8-1-1 .7-2.2 1-3.5 1-2 0-3.5-.5-4.6-1.5-1.2-1-2-2.6-2-4.5 0-1.8.7-3.3 1.8-4.3 1-1 2.7-1.7 4.8-1.7 1 0 2 .2 3 .5v-5.6l-.1-.1zm0 9.2c-.5-.4-1.2-.7-2-.7-1.8 0-2.7.8-2.7 2.5s1 2.6 2.6 2.6c1 0 1.7-.2 2.2-.6v-3.8h-.1zm15.3 5c1.7 0 3.4-.4 5.2-1v2.8c-2 .7-4 1-5.6 1-2 0-4-.3-5.2-1.2-1.5-1-2.2-2.6-2.2-4.6 0-2 .7-3.5 2-4.5 1.4-1 3.2-1.4 5.5-1.4 2.2 0 3.8.5 5 1.4 1 .8 1.3 1.8 1.3 3 0 1-.3 1.8-.8 2.5h-8.7c.2 1.4 1.4 2.2 3.5 2.2v-.2zm1.5-4.6v-1.1c-.5-.5-1-.7-2-.7-1.4 0-2.4.6-2.8 1.8h4.8zm19.4-4.5V30c0 1 .3 1.3 1 1.3.4 0 .6 0 1-.3v3c-1 .3-2.2.5-3.2.5-1.2 0-2-.3-2.8-1-1 .7-2.2 1-3.5 1-2 0-3.6-.5-4.7-1.5-1.3-1-2-2.6-2-4.5 0-1.8.6-3.3 1.8-4.3 1.2-1 2.8-1.7 5-1.7 1.4 0 2.7.3 3.7 1l3.7-1zm-4.6 4c-.5-.3-1.2-.6-2-.6-1.8 0-2.7.8-2.7 2.5s1 2.6 2.7 2.6c1 0 1.6-.2 2-.6v-3.9zm8.2 7.7V17.4l4.7-1.4v18.3h-4.7v-.1zm7-3.7c2 .7 3.7 1 5 1 1 0 1.4-.3 1.4-.7 0-.2 0-.4-.3-.5l-2.7-.7c-2.3-.6-3.5-1.8-3.5-3.4 0-.6 0-1 .4-1.5 1-1.4 2.8-2.2 5.4-2.2 1.3 0 3 .2 4.7.7v3c-1.7-.5-3-.7-4-.7s-1.5.2-1.5.7c0 .2.4.5 1.2.6l2 .5c2.3.7 3.4 1.8 3.4 3.4 0 2.5-2 3.8-6 3.8-1.5 0-3.3-.3-5.4-1v-3h-.1z" fill="#fff"/><path fill-rule="evenodd" clip-rule="evenodd" d="M9.3 37.8c-5 0-9.2-4-9.3-9 0-2.6.8-5 2.5-6.7 1-1 3.3-2.3 4.5-3 2.8-1.3 3.5-2 4.5-3l.8-.8.5-.5c.8-.8 1.7-1.8 3-1.8h.4c1.7.4 2.3 3 2.6 4.4l.4 3.7v.2c.2 0 .3 0 .5-.3.3-.5.6-.8 1-.8 1.8 0 3.6 2.5 4.8 4.3v.2c1 1.4 1.6 3.3 1.6 5 0 3.4-2.8 6.2-6.3 6.2-1 0-1.6-.3-2.2-.5-.6-.3-1.2-.4-1.6-.4-.5 0-1 .3-1.7 1-1.6 1-3.6 1.8-5.8 1.8h-.2z" fill="#FCD806"/><path fill-rule="evenodd" clip-rule="evenodd" d="M9.2 35.6h-.4c-3.7-.2-6.7-3.4-6.5-7 0-2 .8-3.5 2-4.8 1.1-.8 2.5-1.5 3.5-1.8 2.5-.7 3.4-1.3 4.6-2.3l.4-.7c.7-.5 1.2-1 1.8-1h.2c1.2.2 1.4 2 1.5 3 0 1.6.2 2.8 0 4.2 0 .4.2.7.4 1h.5c.3 0 .6 0 1-.2 0 0 0-.2.2-.3l1-1c.5-.4 1-.8 1.3-.8v-.2c.7 0 1.5.7 2.4 1.6l.3.3c1 .8 1.5 1.6 1.7 2.4v1.2c0 2.3-1.8 4.2-4 4.2-.6 0-1 0-1.4-.3h-.4L17.8 32c-.2-.4-.6-.7-1-.7-.6 0-1 0-2 1.3-.4.8-1 1.4-2 2l-.6.3-1 .3c-.5 0-1.3.3-2 .3v.1z" fill="#FC7A03"/><path d="M21.1 31.1a2.1 2.1 0 100-4.2 2.1 2.1 0 000 4.2z" fill="#BF0000"/><path fill-rule="evenodd" clip-rule="evenodd" d="M9.8 33h-.4c-2.3-.3-4-2.2-4-4.4 0-1.2.6-2.2 1.4-3 .5-.4 1-.7 1.7-.8 0 0 .2 0 .3-.2 1.6-.3 2.4-.7 3-1.2l.4-.3c.3-.2.5-.4 1-.4.7.2.8 1 .8 1.7v.3c0 1.5.2 2.7-.2 4.8-.4 2.2-2 3.5-4 3.5z" fill="#BF0000"/></svg>